<svg width="95" height="95" fill="none" xmlns="http://www.w3.org/2000/svg"><path d="M47.5 13.562c-18.715 0-33.938 15.225-33.938 33.94 0 18.713 15.223 33.937 33.938 33.937 18.714 0 33.939-15.224 33.939-33.938 0-18.714-15.225-33.94-33.939-33.94Zm0 62.523c-15.762 0-28.585-12.823-28.585-28.584 0-15.763 12.823-28.586 28.585-28.586S76.085 31.738 76.085 47.5c0 15.761-12.823 28.584-28.585 28.584Z" fill="#8F8F8F"/><g clip-path="url(#a)" stroke="#8F8F8F" stroke-width="4" stroke-miterlimit="10" stroke-linecap="round" stroke-linejoin="round"><path d="M27.875 37.938h24.438V59.5H39.374M59.5 62.375a2.875 2.875 0 1 0 0-5.75 2.875 2.875 0 0 0 0 5.75Z"/><path d="M36.5 62.375a2.875 2.875 0 1 0 0-5.75 2.875 2.875 0 0 0 0 5.75ZM52.313 59.5V43.687h8.624l5.75 7.188V59.5h-4.312M30.75 43.688h12.938M27.875 49.438h12.938"/></g><defs><clipPath id="a"><path fill="#fff" transform="translate(25 25)" d="M0 0h46v46H0z"/></clipPath></defs></svg>