<svg width="96" height="96" fill="none" xmlns="http://www.w3.org/2000/svg"><path d="M16.575 38.063c0 .018 0 .018 0 0a9.46 9.46 0 0 0 5.137 8.343v32.625c0 .769.638 1.406 1.407 1.406H72.88c.769 0 1.406-.637 1.406-1.406V46.406c3.02-1.575 5.1-4.725 5.138-8.343v-.244c0-.019 0-.056-.019-.075 0-.019 0-.038-.019-.075 0-.019-.018-.038-.018-.056 0-.02-.019-.057-.019-.075 0-.02-.019-.038-.019-.057-.019-.037-.019-.056-.037-.075v-.018l-5.981-12.675v-4.82c0-2.4-1.95-4.368-4.37-4.368H27c-2.4 0-4.369 1.95-4.369 4.369v4.931l-5.925 12.563v.018c-.018.019-.018.056-.037.075 0 .019-.019.038-.019.056 0 .02-.019.057-.019.075 0 .02-.018.038-.018.057 0 .019 0 .037-.02.075 0 .019 0 .056-.018.075v.243Zm8.419-11.626H35.4l-2.344 10.144H20.194l4.8-10.144Zm32.718 0 2.344 10.144h-10.65V26.437h8.306Zm18.075 10.144H62.925L60.6 26.437h10.406l4.781 10.144ZM61.125 41.27c-1.181 2.081-3.413 3.412-5.831 3.412-2.475 0-4.744-1.387-5.906-3.562v-1.706h11.287l.45 1.856Zm-25.819-1.875h11.288V41.1a6.697 6.697 0 0 1-5.907 3.563c-2.418 0-4.65-1.332-5.83-3.413l.45-1.856Zm11.288-2.813h-10.65l2.343-10.144h8.307v10.144Zm-27.056 2.813H32.4l-.356 1.575c-1.125 2.25-3.45 3.712-5.981 3.712-3.188 0-5.87-2.268-6.525-5.287Zm35.38 38.25V63.975c0-.169.132-.3.3-.3h7.932c.169 0 .3.131.3.3v13.669h-8.531Zm16.557 0h-5.231V63.975a3.117 3.117 0 0 0-3.113-3.113H55.2a3.117 3.117 0 0 0-3.113 3.113v13.669H24.525V47.362c.506.075 1.013.132 1.556.132a9.508 9.508 0 0 0 7.313-3.45c1.781 2.137 4.462 3.45 7.312 3.45a9.508 9.508 0 0 0 7.313-3.45c1.781 2.137 4.462 3.45 7.312 3.45a9.508 9.508 0 0 0 7.313-3.45c1.781 2.137 4.462 3.45 7.312 3.45.525 0 1.05-.038 1.556-.132v30.282h-.037ZM69.919 44.68a6.69 6.69 0 0 1-5.981-3.712l-.357-1.575h12.863a6.676 6.676 0 0 1-6.525 5.287ZM25.463 19.913c0-.844.693-1.557 1.556-1.557h41.944c.843 0 1.556.694 1.556 1.556v3.713H25.462v-3.712Z" fill="#8F8F8F"/><path d="M44.587 51.112H29.344c-.769 0-1.407.638-1.407 1.407v12.187c0 .769.638 1.406 1.407 1.406h15.243c.77 0 1.407-.637 1.407-1.406V52.52c0-.788-.638-1.407-1.407-1.407Zm-1.406 6.094h-4.819v-3.281h4.82v3.281Zm-7.631-3.281v3.281h-4.8v-3.281h4.8Zm-4.8 6.094h4.819V63.3H30.75v-3.281Zm7.612 3.281v-3.281h4.82V63.3h-4.82Z" fill="#8F8F8F"/></svg>