<svg width="242" height="46" fill="none" xmlns="http://www.w3.org/2000/svg"><path d="M56.594 10.25h2.922l7.453 18.547 7.437-18.547h2.938L68.094 33h-2.281l-9.22-22.75Zm-.953 0h2.578l.422 13.875V33h-3V10.25Zm20.062 0h2.578V33h-3v-8.875l.422-13.875Zm14.453 23.063c-1.177 0-2.245-.198-3.203-.594a7.262 7.262 0 0 1-2.453-1.703 7.575 7.575 0 0 1-1.563-2.594c-.364-1-.546-2.094-.546-3.281v-.657c0-1.375.203-2.599.609-3.672.406-1.083.958-2 1.656-2.75a7.095 7.095 0 0 1 2.375-1.703 6.823 6.823 0 0 1 2.75-.578c1.209 0 2.25.209 3.125.625.886.417 1.61 1 2.172 1.75.563.74.98 1.615 1.25 2.625.271 1 .406 2.094.406 3.282v1.296H84.11V23h9.735v-.219a7.21 7.21 0 0 0-.469-2.187 3.932 3.932 0 0 0-1.25-1.75c-.573-.459-1.354-.688-2.344-.688-.656 0-1.26.14-1.812.422a3.86 3.86 0 0 0-1.422 1.219c-.396.541-.703 1.203-.922 1.984-.219.782-.328 1.683-.328 2.703v.657c0 .802.11 1.557.328 2.265.23.698.557 1.313.984 1.844a4.72 4.72 0 0 0 1.579 1.25c.624.302 1.333.453 2.124.453 1.021 0 1.886-.208 2.594-.625a6.42 6.42 0 0 0 1.86-1.672l1.75 1.39a8.088 8.088 0 0 1-1.391 1.579c-.563.5-1.255.906-2.078 1.219-.813.312-1.776.468-2.89.468Zm20.297-4.22v-13h2.906V33h-2.765l-.141-3.906Zm.547-3.562 1.203-.031c0 1.125-.12 2.167-.359 3.125-.229.948-.604 1.77-1.125 2.469-.521.698-1.203 1.245-2.047 1.64-.844.386-1.87.578-3.078.578-.823 0-1.578-.12-2.266-.359a4.531 4.531 0 0 1-1.75-1.11c-.489-.5-.87-1.15-1.14-1.952-.261-.802-.391-1.766-.391-2.891V16.094h2.891V27.03c0 .76.083 1.39.25 1.89.177.49.411.881.703 1.173.302.281.635.479 1 .593.375.115.76.172 1.156.172 1.229 0 2.203-.234 2.922-.703a4.008 4.008 0 0 0 1.547-1.922c.323-.812.484-1.713.484-2.703Zm8.156-15.281h2.922l7.453 18.547 7.438-18.547h2.937L130.656 33h-2.281l-9.219-22.75Zm-.953 0h2.578l.422 13.875V33h-3V10.25Zm20.063 0h2.578V33h-3v-8.875l.422-13.875Zm14.453 23.063c-1.177 0-2.245-.198-3.203-.594a7.27 7.27 0 0 1-2.454-1.703 7.581 7.581 0 0 1-1.562-2.594c-.365-1-.547-2.094-.547-3.281v-.657c0-1.375.203-2.599.609-3.672.407-1.083.959-2 1.657-2.75a7.09 7.09 0 0 1 2.375-1.703 6.82 6.82 0 0 1 2.75-.578c1.208 0 2.25.209 3.125.625.885.417 1.609 1 2.172 1.75.562.74.979 1.615 1.25 2.625.27 1 .406 2.094.406 3.282v1.296h-12.625V23h9.734v-.219a7.213 7.213 0 0 0-.468-2.187 3.944 3.944 0 0 0-1.25-1.75c-.573-.459-1.355-.688-2.344-.688-.656 0-1.261.14-1.813.422a3.862 3.862 0 0 0-1.422 1.219c-.395.541-.703 1.203-.921 1.984-.219.782-.329 1.683-.329 2.703v.657c0 .802.11 1.557.329 2.265.229.698.557 1.313.984 1.844a4.71 4.71 0 0 0 1.578 1.25c.625.302 1.333.453 2.125.453 1.021 0 1.885-.208 2.594-.625a6.42 6.42 0 0 0 1.859-1.672l1.75 1.39a8.08 8.08 0 0 1-1.39 1.579c-.563.5-1.256.906-2.079 1.219-.812.312-1.776.468-2.89.468Zm12.843-14.563V33h-2.89V16.094h2.812l.078 2.656Zm5.282-2.75-.016 2.688a4.168 4.168 0 0 0-.687-.094 7.298 7.298 0 0 0-.719-.032c-.667 0-1.255.105-1.766.313-.51.208-.942.5-1.297.875a4.205 4.205 0 0 0-.843 1.344 6.474 6.474 0 0 0-.391 1.687l-.813.469c0-1.02.099-1.98.297-2.875.209-.896.526-1.688.953-2.375.428-.698.969-1.24 1.626-1.625.666-.396 1.458-.594 2.374-.594.209 0 .448.026.719.078.271.042.459.089.563.141Zm9.125 14.938a4.33 4.33 0 0 0 1.906-.422 3.92 3.92 0 0 0 1.437-1.157c.376-.5.589-1.067.641-1.703h2.75c-.052 1-.391 1.933-1.015 2.797-.615.854-1.422 1.547-2.422 2.078-1 .521-2.099.782-3.297.782-1.271 0-2.38-.224-3.328-.672a6.593 6.593 0 0 1-2.344-1.844 8.24 8.24 0 0 1-1.391-2.688 11.345 11.345 0 0 1-.453-3.234v-.656c0-1.136.151-2.209.453-3.219a8.214 8.214 0 0 1 1.391-2.703 6.592 6.592 0 0 1 2.344-1.844c.948-.448 2.057-.672 3.328-.672 1.323 0 2.479.271 3.469.813a5.971 5.971 0 0 1 2.328 2.187c.573.917.885 1.959.937 3.125h-2.75a4.16 4.16 0 0 0-.594-1.89 3.694 3.694 0 0 0-1.375-1.344c-.573-.344-1.244-.516-2.015-.516-.886 0-1.63.177-2.235.532a3.927 3.927 0 0 0-1.422 1.406 6.605 6.605 0 0 0-.75 1.953 10.802 10.802 0 0 0-.218 2.172v.656c0 .74.073 1.469.218 2.188.146.718.391 1.37.735 1.953a4.081 4.081 0 0 0 1.422 1.406c.604.344 1.354.515 2.25.515Zm19.953-.829v-8.703c0-.666-.136-1.244-.406-1.734a2.665 2.665 0 0 0-1.188-1.156c-.531-.271-1.187-.407-1.969-.407-.729 0-1.369.125-1.921.375-.542.25-.969.578-1.282.985a2.157 2.157 0 0 0-.453 1.312h-2.891c0-.604.157-1.203.469-1.797.313-.593.761-1.13 1.344-1.609.594-.49 1.302-.875 2.125-1.156.833-.292 1.76-.438 2.781-.438 1.229 0 2.313.209 3.25.625.948.417 1.688 1.047 2.219 1.89.542.834.812 1.881.812 3.142v7.875c0 .562.047 1.161.141 1.796.104.636.255 1.183.453 1.641V33h-3.015c-.146-.333-.261-.776-.344-1.328a10.759 10.759 0 0 1-.125-1.563Zm.5-7.359.031 2.031h-2.922c-.823 0-1.557.068-2.203.203-.646.125-1.187.318-1.625.578a2.75 2.75 0 0 0-1 .985c-.229.385-.344.838-.344 1.36 0 .53.12 1.015.36 1.452.239.438.599.787 1.078 1.047.489.25 1.088.375 1.797.375.885 0 1.666-.187 2.344-.562.677-.375 1.213-.834 1.609-1.375.406-.542.625-1.068.656-1.578l1.235 1.39c-.073.438-.271.922-.594 1.453a6.944 6.944 0 0 1-1.297 1.532c-.531.479-1.167.88-1.906 1.203-.73.312-1.552.468-2.469.468-1.146 0-2.151-.223-3.016-.671-.854-.448-1.521-1.047-2-1.797a4.763 4.763 0 0 1-.703-2.547c0-.906.177-1.703.531-2.39a4.621 4.621 0 0 1 1.532-1.735c.666-.469 1.468-.823 2.406-1.063.937-.24 1.984-.359 3.14-.359h3.36Zm17.594 6.969V9h2.906v24h-2.656l-.25-3.281Zm-11.375-4.985v-.328c0-1.291.156-2.463.468-3.515.323-1.063.776-1.974 1.36-2.735a6.147 6.147 0 0 1 2.109-1.75c.823-.416 1.74-.625 2.75-.625 1.063 0 1.99.188 2.781.563.802.364 1.48.9 2.032 1.61.562.697 1.005 1.54 1.328 2.53.323.99.547 2.11.672 3.36v1.437c-.115 1.24-.339 2.354-.672 3.344-.323.99-.766 1.833-1.328 2.531a5.56 5.56 0 0 1-2.032 1.61c-.802.364-1.739.547-2.812.547-.99 0-1.896-.214-2.719-.641a6.414 6.414 0 0 1-2.109-1.797c-.584-.77-1.037-1.677-1.36-2.719-.312-1.052-.468-2.192-.468-3.422Zm2.906-.328v.328c0 .844.083 1.636.25 2.375.177.74.448 1.391.812 1.953A4.043 4.043 0 0 0 212 30.392c.562.312 1.234.468 2.016.468.958 0 1.744-.203 2.359-.609a4.543 4.543 0 0 0 1.5-1.61c.375-.666.667-1.39.875-2.171v-3.766a8.316 8.316 0 0 0-.547-1.656 5.094 5.094 0 0 0-.906-1.438 3.926 3.926 0 0 0-1.359-1.015c-.532-.25-1.162-.375-1.891-.375-.792 0-1.474.166-2.047.5a3.996 3.996 0 0 0-1.391 1.343c-.364.563-.635 1.22-.812 1.97-.167.739-.25 1.53-.25 2.374Zm15.109.328v-.359c0-1.219.177-2.349.532-3.39.354-1.053.864-1.964 1.531-2.735a6.827 6.827 0 0 1 2.422-1.813c.948-.437 2.01-.656 3.187-.656 1.188 0 2.255.219 3.203.656a6.797 6.797 0 0 1 2.438 1.813c.677.77 1.192 1.682 1.547 2.734.354 1.042.531 2.172.531 3.391v.36c0 1.218-.177 2.348-.531 3.39a8.129 8.129 0 0 1-1.547 2.734 7.09 7.09 0 0 1-2.422 1.813c-.938.427-2 .64-3.188.64-1.187 0-2.255-.213-3.203-.64a7.245 7.245 0 0 1-2.437-1.813 8.25 8.25 0 0 1-1.531-2.734c-.355-1.042-.532-2.172-.532-3.39Zm2.891-.359v.36c0 .843.099 1.64.297 2.39.198.74.495 1.396.89 1.969a4.517 4.517 0 0 0 1.516 1.36c.604.322 1.307.483 2.109.483.792 0 1.485-.161 2.079-.484a4.365 4.365 0 0 0 1.5-1.36c.395-.572.692-1.228.89-1.968a8.91 8.91 0 0 0 .313-2.39v-.36c0-.833-.105-1.62-.313-2.36a6.083 6.083 0 0 0-.906-1.984 4.31 4.31 0 0 0-1.5-1.375c-.594-.333-1.292-.5-2.094-.5-.792 0-1.489.167-2.094.5a4.511 4.511 0 0 0-1.5 1.375 6.295 6.295 0 0 0-.89 1.985 9.09 9.09 0 0 0-.297 2.359Z" fill="#3A3A3A"/><path d="M41.825 14.243a1.916 1.916 0 0 0-1.575-.826H14.055l-2.212-5.31A3.822 3.822 0 0 0 8.305 5.75H3.833v3.833h4.472l9.093 21.822a1.917 1.917 0 0 0 1.769 1.178H34.5c.8 0 1.514-.496 1.796-1.242l5.75-15.333a1.916 1.916 0 0 0-.22-1.765ZM20.125 40.25a2.875 2.875 0 1 0 0-5.75 2.875 2.875 0 0 0 0 5.75ZM33.542 40.25a2.875 2.875 0 1 0 0-5.75 2.875 2.875 0 0 0 0 5.75Z" fill="#64BA01"/></svg>