<svg width="95" height="95" fill="none" xmlns="http://www.w3.org/2000/svg"><path d="M47.5 13.562c-18.715 0-33.938 15.225-33.938 33.94 0 18.713 15.223 33.937 33.938 33.937 18.714 0 33.939-15.224 33.939-33.938 0-18.714-15.225-33.94-33.939-33.94Zm0 62.523c-15.762 0-28.585-12.823-28.585-28.584 0-15.763 12.823-28.586 28.585-28.586S76.085 31.738 76.085 47.5c0 15.761-12.823 28.584-28.585 28.584Z" fill="#CCC"/><path d="M42.133 40.85c0-2.148 3.14-2.514 5.865-2.514 2.567 0 6.075 1.203 9.009 2.724l.574-5.918c-1.467-.839-4.87-1.834-8.326-2.042l.837-6.023H44.49l.839 6.023c-7.227.68-9.584 4.869-9.584 8.378 0 8.85 16.495 6.967 16.495 12.41 0 2.045-1.936 2.776-5.341 2.776-4.608 0-8.066-1.621-9.845-3.299l-.891 6.652c1.677.995 5.08 1.885 9.166 2.096l-.84 5.813h5.604l-.837-5.867c8.483-.733 10.002-5.238 10.002-8.222 0-10.525-17.124-7.908-17.124-12.988Z" fill="#CCC"/></svg>
